<?xml version="1.0" encoding="UTF-8"?>
<svg xmlns="http://www.w3.org/2000/svg" xmlns:xlink="http://www.w3.org/1999/xlink" width="226.77pt" height="226.77pt" viewBox="0 0 226.77 226.77" version="1.1">
<g id="surface1">
<path style=" stroke:none;fill-rule:nonzero;fill:rgb(94.099426%,30.599976%,13.699341%);fill-opacity:1;" d="M 26.105469 102.207031 C 26.363281 102.207031 26.570313 102.417969 26.570313 102.679688 L 26.570313 106.449219 C 26.570313 106.707031 26.363281 106.917969 26.105469 106.917969 L 19.71875 106.917969 C 19.457031 106.917969 19.246094 107.128906 19.246094 107.386719 L 19.246094 110.582031 C 19.246094 110.84375 19.378906 111.050781 19.636719 111.050781 L 26.105469 111.050781 C 26.363281 111.050781 26.570313 111.261719 26.570313 111.519531 L 26.570313 115.171875 C 26.570313 115.429688 26.363281 115.636719 26.105469 115.636719 L 19.636719 115.636719 C 19.378906 115.636719 19.246094 115.847656 19.246094 116.105469 L 19.246094 123.929688 C 19.246094 124.1875 19.039063 124.398438 18.777344 124.398438 L 14.640625 124.398438 C 14.382813 124.398438 14.171875 124.1875 14.171875 123.929688 L 14.171875 102.679688 C 14.171875 102.417969 14.382813 102.207031 14.640625 102.207031 L 26.105469 102.207031 "/>
<path style=" stroke:none;fill-rule:nonzero;fill:rgb(94.099426%,30.599976%,13.699341%);fill-opacity:1;" d="M 203.609375 102.207031 L 207.742188 102.207031 C 207.996094 102.207031 208.210938 102.417969 208.210938 102.679688 L 208.210938 123.929688 C 208.210938 124.1875 207.996094 124.398438 207.742188 124.398438 L 203.609375 124.398438 C 203.351563 124.398438 203.140625 124.1875 203.140625 123.929688 L 203.140625 102.679688 C 203.140625 102.417969 203.351563 102.207031 203.609375 102.207031 "/>
<path style=" stroke:none;fill-rule:nonzero;fill:rgb(94.099426%,30.599976%,13.699341%);fill-opacity:1;" d="M 169.433594 119.617188 C 169.175781 119.617188 168.96875 119.40625 168.96875 119.148438 L 168.96875 116.105469 C 168.96875 115.847656 169.175781 115.636719 169.433594 115.636719 L 175.816406 115.636719 C 176.078125 115.636719 176.285156 115.429688 176.285156 115.167969 L 176.285156 111.519531 C 176.285156 111.261719 176.078125 111.050781 175.816406 111.050781 L 169.355469 111.050781 C 169.09375 111.050781 168.96875 110.839844 168.96875 110.578125 L 168.96875 107.386719 C 168.96875 107.128906 169.175781 106.917969 169.433594 106.917969 L 175.816406 106.917969 C 176.078125 106.917969 176.285156 106.707031 176.285156 106.449219 L 176.285156 102.679688 C 176.285156 102.417969 176.078125 102.207031 175.816406 102.207031 L 164.355469 102.207031 C 164.101563 102.207031 163.890625 102.417969 163.890625 102.679688 L 163.890625 123.929688 C 163.890625 124.1875 164.101563 124.398438 164.355469 124.398438 L 175.816406 124.398438 C 176.078125 124.398438 176.285156 124.1875 176.285156 123.929688 L 176.285156 120.085938 C 176.285156 119.828125 176.078125 119.617188 175.816406 119.617188 L 169.433594 119.617188 "/>
<path style=" stroke:none;fill-rule:evenodd;fill:rgb(94.099426%,30.599976%,13.699341%);fill-opacity:1;" d="M 32.316406 113.351563 C 32.316406 109.890625 35.125 107.085938 38.585938 107.085938 C 42.046875 107.085938 44.851563 109.890625 44.851563 113.351563 C 44.851563 116.8125 42.046875 119.617188 38.585938 119.617188 C 35.125 119.617188 32.316406 116.8125 32.316406 113.351563 Z M 27.078125 113.382813 C 27.078125 107.027344 32.226563 101.878906 38.582031 101.878906 C 44.9375 101.878906 50.089844 107.027344 50.089844 113.382813 C 50.089844 119.730469 44.9375 124.890625 38.582031 124.890625 C 32.226563 124.890625 27.078125 119.730469 27.078125 113.382813 "/>
<path style=" stroke:none;fill-rule:evenodd;fill:rgb(94.099426%,30.599976%,13.699341%);fill-opacity:1;" d="M 55.636719 123.929688 L 55.636719 116.105469 C 55.636719 115.847656 55.847656 115.636719 56.105469 115.636719 L 59.304688 115.636719 C 63.015625 115.636719 66.023438 112.640625 66.023438 108.925781 C 66.023438 105.214844 63.015625 102.207031 59.304688 102.207031 L 51.042969 102.207031 C 50.78125 102.207031 50.570313 102.417969 50.570313 102.679688 L 50.570313 123.929688 C 50.570313 124.1875 50.78125 124.398438 51.042969 124.398438 L 55.175781 124.398438 C 55.4375 124.398438 55.636719 124.1875 55.636719 123.929688 Z M 58.65625 106.917969 C 59.796875 106.917969 60.71875 107.84375 60.71875 108.984375 C 60.71875 110.125 59.796875 111.050781 58.65625 111.050781 L 56.117188 111.050781 C 55.859375 111.050781 55.648438 110.839844 55.648438 110.578125 L 55.648438 107.386719 C 55.648438 107.128906 55.859375 106.917969 56.117188 106.917969 L 58.65625 106.917969 "/>
<path style=" stroke:none;fill-rule:evenodd;fill:rgb(94.099426%,30.599976%,13.699341%);fill-opacity:1;" d="M 71.734375 123.929688 L 71.734375 116.105469 C 71.734375 115.847656 71.945313 115.636719 72.207031 115.636719 L 75.402344 115.636719 C 79.117188 115.636719 82.121094 112.640625 82.121094 108.925781 C 82.121094 105.214844 79.117188 102.207031 75.402344 102.207031 L 67.140625 102.207031 C 66.882813 102.207031 66.671875 102.417969 66.671875 102.679688 L 66.671875 123.929688 C 66.671875 124.1875 66.882813 124.398438 67.140625 124.398438 L 71.277344 124.398438 C 71.535156 124.398438 71.734375 124.1875 71.734375 123.929688 Z M 74.753906 106.917969 C 75.894531 106.917969 76.820313 107.84375 76.820313 108.984375 C 76.820313 110.125 75.894531 111.050781 74.753906 111.050781 L 72.214844 111.050781 C 71.957031 111.050781 71.75 110.839844 71.75 110.578125 L 71.75 107.386719 C 71.75 107.128906 71.957031 106.917969 72.214844 106.917969 L 74.753906 106.917969 "/>
<path style=" stroke:none;fill-rule:evenodd;fill:rgb(94.099426%,30.599976%,13.699341%);fill-opacity:1;" d="M 103.136719 123.929688 L 103.136719 116.105469 C 103.136719 115.847656 103.347656 115.636719 103.605469 115.636719 L 106.804688 115.636719 C 110.53125 115.636719 113.542969 112.640625 113.542969 108.925781 C 113.542969 105.214844 110.53125 102.207031 106.804688 102.207031 L 98.542969 102.207031 C 98.285156 102.207031 98.074219 102.417969 98.074219 102.679688 L 98.074219 123.929688 C 98.074219 124.1875 98.285156 124.398438 98.542969 124.398438 L 102.679688 124.398438 C 102.9375 124.398438 103.136719 124.1875 103.136719 123.929688 Z M 106.15625 106.917969 C 107.296875 106.917969 108.230469 107.84375 108.230469 108.984375 C 108.230469 110.125 107.296875 111.050781 106.15625 111.050781 L 103.621094 111.050781 C 103.359375 111.050781 103.152344 110.839844 103.152344 110.578125 L 103.152344 107.386719 C 103.152344 107.128906 103.359375 106.917969 103.621094 106.917969 L 106.15625 106.917969 "/>
<path style=" stroke:none;fill-rule:nonzero;fill:rgb(94.099426%,30.599976%,13.699341%);fill-opacity:1;" d="M 119.621094 119.617188 C 119.359375 119.617188 119.148438 119.40625 119.148438 119.148438 L 119.148438 116.105469 C 119.148438 115.847656 119.359375 115.636719 119.621094 115.636719 L 126.003906 115.636719 C 126.261719 115.636719 126.476563 115.429688 126.476563 115.167969 L 126.476563 111.519531 C 126.476563 111.261719 126.261719 111.050781 126.003906 111.050781 L 119.535156 111.050781 C 119.277344 111.050781 119.148438 110.839844 119.148438 110.578125 L 119.148438 107.386719 C 119.148438 107.128906 119.359375 106.917969 119.621094 106.917969 L 126.003906 106.917969 C 126.261719 106.917969 126.476563 106.707031 126.476563 106.449219 L 126.476563 102.679688 C 126.476563 102.417969 126.261719 102.207031 126.003906 102.207031 L 114.535156 102.207031 C 114.277344 102.207031 114.066406 102.417969 114.066406 102.679688 L 114.066406 123.929688 C 114.066406 124.1875 114.277344 124.398438 114.535156 124.398438 L 126.003906 124.398438 C 126.261719 124.398438 126.476563 124.1875 126.476563 123.929688 L 126.476563 120.085938 C 126.476563 119.828125 126.261719 119.617188 126.003906 119.617188 L 119.621094 119.617188 "/>
<path style=" stroke:none;fill-rule:evenodd;fill:rgb(94.099426%,30.599976%,13.699341%);fill-opacity:1;" d="M 135.347656 124.398438 L 128.039063 124.398438 C 127.777344 124.398438 127.566406 124.1875 127.566406 123.929688 L 127.566406 102.679688 C 127.566406 102.417969 127.777344 102.207031 128.039063 102.207031 L 135.347656 102.207031 C 141.445313 102.207031 146.351563 107.246094 146.351563 113.347656 C 146.351563 119.441406 141.445313 124.398438 135.347656 124.398438 Z M 134.503906 119.617188 L 133.089844 119.617188 C 132.824219 119.617188 132.617188 119.40625 132.617188 119.148438 L 132.617188 107.386719 C 132.617188 107.128906 132.824219 106.917969 133.089844 106.917969 L 134.503906 106.917969 C 138.011719 106.917969 140.851563 109.761719 140.851563 113.269531 C 140.851563 116.773438 138.011719 119.617188 134.503906 119.617188 "/>
<path style=" stroke:none;fill-rule:evenodd;fill:rgb(94.099426%,30.599976%,13.699341%);fill-opacity:1;" d="M 151.851563 123.929688 C 151.851563 124.1875 151.640625 124.398438 151.378906 124.398438 L 147.242188 124.398438 C 146.984375 124.398438 146.773438 124.1875 146.773438 123.929688 L 146.773438 102.679688 C 146.773438 102.417969 146.984375 102.207031 147.242188 102.207031 L 155.507813 102.207031 C 159.21875 102.207031 162.226563 105.214844 162.226563 108.925781 C 162.226563 111.988281 160.171875 114.574219 157.371094 115.382813 C 157.371094 115.382813 157.179688 115.460938 157.171875 115.707031 C 157.160156 115.933594 157.382813 116.105469 157.382813 116.105469 L 163.324219 123.929688 C 163.324219 124.1875 163.113281 124.398438 162.855469 124.398438 L 157.738281 124.398438 C 157.480469 124.398438 157.171875 124.15625 157.074219 123.929688 L 151.964844 116.308594 C 151.964844 116.308594 151.929688 116.167969 151.867188 116.1875 C 151.8125 116.199219 151.84375 116.328125 151.84375 116.328125 Z M 154.855469 106.917969 C 155.996094 106.917969 156.925781 107.84375 156.925781 108.984375 C 156.925781 110.125 155.996094 111.050781 154.855469 111.050781 L 152.320313 111.050781 C 152.0625 111.050781 151.851563 110.839844 151.851563 110.578125 L 151.851563 107.386719 C 151.851563 107.128906 152.0625 106.917969 152.320313 106.917969 L 154.855469 106.917969 "/>
<path style=" stroke:none;fill-rule:nonzero;fill:rgb(94.099426%,30.599976%,13.699341%);fill-opacity:1;" d="M 180.679688 107.386719 C 180.679688 107.128906 180.46875 106.917969 180.210938 106.917969 L 177.484375 106.917969 C 177.226563 106.917969 177.019531 106.707031 177.019531 106.449219 L 177.019531 102.679688 C 177.019531 102.421875 177.226563 102.210938 177.484375 102.210938 L 188.949219 102.210938 C 189.210938 102.210938 189.417969 102.421875 189.417969 102.679688 L 189.417969 106.449219 C 189.417969 106.707031 189.210938 106.917969 188.949219 106.917969 L 186.214844 106.917969 C 185.953125 106.917969 185.75 107.085938 185.75 107.34375 L 185.75 123.929688 C 185.75 124.1875 185.535156 124.398438 185.28125 124.398438 L 181.148438 124.398438 C 180.886719 124.398438 180.679688 124.1875 180.679688 123.929688 L 180.679688 107.386719 "/>
<path style=" stroke:none;fill-rule:nonzero;fill:rgb(94.099426%,30.599976%,13.699341%);fill-opacity:1;" d="M 193.738281 107.386719 C 193.738281 107.128906 193.527344 106.917969 193.269531 106.917969 L 190.550781 106.917969 C 190.289063 106.917969 190.078125 106.707031 190.078125 106.449219 L 190.078125 102.679688 C 190.078125 102.421875 190.289063 102.210938 190.550781 102.210938 L 202.011719 102.210938 C 202.269531 102.210938 202.480469 102.421875 202.480469 102.679688 L 202.480469 106.449219 C 202.480469 106.707031 202.269531 106.917969 202.011719 106.917969 L 199.277344 106.917969 C 199.019531 106.917969 198.8125 107.085938 198.8125 107.34375 L 198.8125 123.929688 C 198.8125 124.1875 198.601563 124.398438 198.339844 124.398438 L 194.210938 124.398438 C 193.949219 124.398438 193.738281 124.1875 193.738281 123.929688 L 193.738281 107.386719 "/>
<path style=" stroke:none;fill-rule:evenodd;fill:rgb(94.099426%,30.599976%,13.699341%);fill-opacity:1;" d="M 90.886719 120.550781 L 90.886719 123.929688 C 90.886719 124.1875 91.097656 124.398438 91.355469 124.398438 L 95.488281 124.398438 C 95.75 124.398438 95.957031 124.1875 95.957031 123.929688 L 95.957031 102.679688 C 95.957031 102.417969 95.75 102.207031 95.488281 102.207031 L 89.199219 102.207031 C 88.941406 102.207031 88.757813 102.402344 88.578125 102.679688 L 73.972656 123.929688 C 73.972656 124.1875 74.183594 124.398438 74.441406 124.398438 L 78.9375 124.398438 C 79.25 124.257813 79.261719 124.183594 79.445313 123.933594 L 81.753906 120.546875 C 81.929688 120.277344 82.105469 120.082031 82.363281 120.082031 L 90.417969 120.082031 C 90.625 120.082031 90.828125 120.363281 90.886719 120.550781 Z M 90.511719 107.746094 C 90.699219 107.683594 90.886719 107.707031 90.886719 107.964844 L 90.886719 114.898438 C 90.886719 115.15625 90.675781 115.363281 90.414063 115.363281 L 85.808594 115.363281 C 85.53125 115.203125 85.582031 115.339844 85.570313 114.953125 L 90.511719 107.746094 "/>
<path style=" stroke:none;fill-rule:evenodd;fill:rgb(94.099426%,30.599976%,13.699341%);fill-opacity:1;" d="M 210.945313 102.960938 C 211.167969 102.960938 211.328125 102.980469 211.433594 103.027344 C 211.617188 103.101563 211.710938 103.25 211.710938 103.476563 C 211.710938 103.632813 211.648438 103.75 211.53125 103.824219 C 211.472656 103.863281 211.386719 103.894531 211.273438 103.910156 C 211.414063 103.933594 211.519531 103.992188 211.582031 104.085938 C 211.644531 104.179688 211.679688 104.269531 211.679688 104.363281 L 211.679688 104.492188 C 211.679688 104.53125 211.683594 104.578125 211.683594 104.621094 C 211.6875 104.671875 211.691406 104.703125 211.699219 104.71875 L 211.414063 104.738281 L 211.410156 104.699219 L 211.402344 104.644531 L 211.402344 104.503906 C 211.402344 104.296875 211.347656 104.160156 211.230469 104.09375 C 211.167969 104.054688 211.050781 104.035156 210.886719 104.035156 L 210.640625 104.035156 L 210.640625 104.738281 L 210.324219 104.738281 L 210.324219 102.960938 Z M 209.992188 102.867188 C 209.722656 103.140625 209.589844 103.46875 209.589844 103.851563 C 209.589844 104.242188 209.722656 104.574219 209.988281 104.847656 C 210.265625 105.117188 210.589844 105.257813 210.980469 105.257813 C 211.367188 105.257813 211.691406 105.117188 211.964844 104.847656 C 212.234375 104.574219 212.371094 104.242188 212.371094 103.851563 C 212.371094 103.46875 212.234375 103.140625 211.964844 102.867188 C 211.691406 102.59375 211.367188 102.457031 210.980469 102.457031 C 210.59375 102.457031 210.265625 102.59375 209.992188 102.867188 Z M 212.128906 105.003906 C 211.808594 105.320313 211.429688 105.480469 210.980469 105.480469 C 210.527344 105.480469 210.144531 105.320313 209.832031 105.003906 C 209.519531 104.6875 209.363281 104.304688 209.363281 103.851563 C 209.363281 103.410156 209.519531 103.027344 209.835938 102.710938 C 210.152344 102.394531 210.53125 102.238281 210.980469 102.238281 C 211.429688 102.238281 211.808594 102.394531 212.128906 102.710938 C 212.441406 103.027344 212.597656 103.410156 212.597656 103.851563 C 212.597656 104.304688 212.441406 104.683594 212.128906 105.003906 Z M 211.28125 103.242188 C 211.203125 103.195313 211.078125 103.175781 210.90625 103.175781 L 210.640625 103.175781 L 210.640625 103.820313 L 210.921875 103.820313 C 211.054688 103.820313 211.152344 103.804688 211.21875 103.78125 C 211.34375 103.730469 211.402344 103.640625 211.402344 103.5 C 211.402344 103.371094 211.359375 103.285156 211.28125 103.242188 "/>
</g>
</svg>
