<?xml version="1.0" encoding="UTF-8"?>
<!-- Generator: Adobe Illustrator 15.0.0, SVG Export Plug-In . SVG Version: 6.00 Build 0)  -->
<!DOCTYPE svg PUBLIC "-//W3C//DTD SVG 1.1//EN" "http://www.w3.org/Graphics/SVG/1.1/DTD/svg11.dtd">
<svg version="1.1" id="logo" xmlns="http://www.w3.org/2000/svg" xmlns:xlink="http://www.w3.org/1999/xlink" x="0px" y="0px" width="237.561px" height="50px" viewBox="0 0 237.561 50" enable-background="new 0 0 237.561 50" xml:space="preserve">
<path fill="rgb(94.099426%,30.599976%,13.699341%)" d="M222.522,11.811h4.834c0.303,0,0.548,0.246,0.548,0.547v24.844c0,0.305-0.245,0.547-0.548,0.547h-4.834  c-0.3,0-0.547-0.242-0.547-0.547V12.358C221.976,12.057,222.223,11.811,222.522,11.811"/>
<path fill="rgb(94.099426%,30.599976%,13.699341%)" d="M7.389,22.152h7.562c0.304,0,0.55,0.245,0.55,0.548v4.268c0,0.303-0.246,0.549-0.55,0.549H7.389  c-0.303,0-0.455,0.246-0.455,0.55v4.654v4.481c0,0.305-0.245,0.547-0.548,0.547H1.549C1.245,37.749,1,37.507,1,37.202V12.358  c0-0.302,0.245-0.547,0.549-0.547h13.402c0.304,0,0.55,0.246,0.55,0.547v4.411c0,0.303-0.246,0.549-0.55,0.549H7.484  c-0.303,0-0.55,0.245-0.55,0.549v3.736C6.934,21.905,7.086,22.152,7.389,22.152"/>
<path fill="rgb(94.099426%,30.599976%,13.699341%)" d="M182.554,32.172c-0.302,0-0.547-0.246-0.547-0.549v-3.557c0-0.304,0.245-0.55,0.547-0.55h7.47  c0.302,0,0.549-0.246,0.549-0.549V22.7c0-0.303-0.247-0.548-0.549-0.548h-7.563c-0.302,0-0.453-0.247-0.453-0.548v-3.735  c0-0.305,0.245-0.549,0.547-0.549h7.47c0.302,0,0.549-0.247,0.549-0.55v-4.411c0-0.302-0.247-0.547-0.549-0.547h-13.404  c-0.303,0-0.548,0.246-0.548,0.547v24.844c0,0.305,0.245,0.547,0.548,0.547h13.404c0.302,0,0.549-0.242,0.549-0.547v-4.481  c0-0.302-0.247-0.549-0.549-0.549H182.554"/>
<path fill-rule="evenodd" clip-rule="evenodd" fill="rgb(94.099426%,30.599976%,13.699341%)" d="M16.092,24.877c0-7.431,6.024-13.454,13.456-13.454  c7.431,0,13.456,6.022,13.456,13.454c0,7.43-6.024,13.453-13.456,13.453C22.116,38.33,16.092,32.308,16.092,24.877 M22.221,24.845  c0-4.048,3.282-7.329,7.329-7.329c4.049,0,7.33,3.281,7.33,7.329c0,4.046-3.281,7.327-7.33,7.327  C25.503,32.172,22.221,28.891,22.221,24.845z"/>
<path fill-rule="evenodd" clip-rule="evenodd" fill="rgb(94.099426%,30.599976%,13.699341%)" d="M53.022,17.318c1.335,0,2.416,1.082,2.416,2.418  c0,1.333-1.081,2.416-2.416,2.416h-2.968c-0.304,0-0.548-0.247-0.548-0.548v-3.736c0-0.304,0.245-0.549,0.548-0.549H53.022   M49.491,37.202v-9.136c0-0.304,0.245-0.55,0.548-0.55h3.741c4.34,0,7.859-3.51,7.859-7.85c0-4.339-3.519-7.856-7.859-7.856h-9.663  c-0.303,0-0.549,0.246-0.549,0.547v24.844c0,0.305,0.246,0.547,0.549,0.547h4.838C49.258,37.749,49.491,37.507,49.491,37.202z"/>
<path fill-rule="evenodd" clip-rule="evenodd" fill="rgb(94.099426%,30.599976%,13.699341%)" d="M71.851,17.318c1.336,0,2.419,1.082,2.419,2.418  c0,1.333-1.083,2.416-2.419,2.416h-2.966c-0.304,0-0.549-0.247-0.549-0.548v-3.736c0-0.304,0.245-0.549,0.549-0.549H71.851   M68.321,37.202v-9.136c0-0.304,0.245-0.55,0.547-0.55h3.741c4.341,0,7.859-3.51,7.859-7.85c0-4.339-3.519-7.856-7.859-7.856h-9.664  c-0.301,0-0.548,0.246-0.548,0.547v24.844c0,0.305,0.247,0.547,0.548,0.547h4.839C68.088,37.749,68.321,37.507,68.321,37.202z"/>
<path fill-rule="evenodd" clip-rule="evenodd" fill="rgb(94.099426%,30.599976%,13.699341%)" d="M108.579,17.318c1.336,0,2.417,1.082,2.417,2.418  c0,1.333-1.081,2.416-2.417,2.416h-2.968c-0.303,0-0.549-0.247-0.549-0.548v-3.736c0-0.304,0.246-0.549,0.549-0.549H108.579   M105.047,37.202v-9.136c0-0.304,0.247-0.55,0.55-0.55h3.74c4.34,0,7.859-3.51,7.859-7.85c0-4.339-3.52-7.856-7.859-7.856h-9.663  c-0.302,0-0.549,0.246-0.549,0.547v24.844c0,0.305,0.247,0.547,0.549,0.547h4.839C104.814,37.749,105.047,37.507,105.047,37.202z"/>
<path fill="rgb(94.099426%,30.599976%,13.699341%)" d="M124.295,32.172c-0.304,0-0.55-0.246-0.55-0.549v-3.557c0-0.304,0.246-0.55,0.55-0.55h7.468  c0.303,0,0.549-0.246,0.549-0.549V22.7c0-0.303-0.246-0.548-0.549-0.548h-7.562c-0.304,0-0.456-0.247-0.456-0.548v-3.735  c0-0.305,0.246-0.549,0.55-0.549h7.468c0.303,0,0.549-0.247,0.549-0.55v-4.411c0-0.302-0.246-0.547-0.549-0.547H118.36  c-0.305,0-0.551,0.246-0.551,0.547v24.844c0,0.305,0.246,0.547,0.551,0.547h13.402c0.303,0,0.549-0.242,0.549-0.547v-4.481  c0-0.302-0.246-0.549-0.549-0.549H124.295"/>
<path fill-rule="evenodd" clip-rule="evenodd" fill="rgb(94.099426%,30.599976%,13.699341%)" d="M141.7,32.172h-1.655c-0.302,0-0.549-0.247-0.549-0.549V17.867  c0-0.304,0.247-0.549,0.549-0.549h1.655c4.101,0,7.427,3.326,7.427,7.427C149.127,28.847,145.801,32.172,141.7,32.172   M142.688,37.749h-8.55c-0.302,0-0.549-0.242-0.549-0.547V12.358c0-0.302,0.247-0.547,0.549-0.547h8.55  c7.137,0,12.872,5.89,12.872,13.024C155.561,31.968,149.825,37.749,142.688,37.749z"/>
<path fill-rule="evenodd" clip-rule="evenodd" fill="rgb(94.099426%,30.599976%,13.699341%)" d="M165.507,17.318c1.334,0,2.414,1.082,2.414,2.418  c0,1.333-1.08,2.416-2.414,2.416h-2.969c-0.303,0-0.548-0.247-0.548-0.548v-3.736c0-0.304,0.245-0.549,0.548-0.549H165.507   M161.988,37.202c0,0.305-0.247,0.547-0.551,0.547H156.6c-0.302,0-0.549-0.242-0.549-0.547V12.358c0-0.302,0.247-0.547,0.549-0.547  h9.663c4.342,0,7.859,3.517,7.859,7.856c0,3.583-2.396,6.604-5.675,7.549c0,0-0.223,0.092-0.234,0.385  c-0.011,0.263,0.246,0.466,0.246,0.466l6.95,9.136c0,0.305-0.245,0.547-0.549,0.547h-5.982c-0.304,0-0.665-0.281-0.776-0.547  l-5.979-8.902c0,0-0.04-0.165-0.108-0.146c-0.065,0.02-0.033,0.172-0.033,0.172L161.988,37.202z"/>
<path fill="rgb(94.099426%,30.599976%,13.699341%)" d="M195.704,17.867c0-0.304-0.245-0.549-0.547-0.549h-3.186c-0.305,0-0.55-0.246-0.55-0.55v-4.41  c0-0.302,0.245-0.547,0.55-0.547h13.408c0.303,0,0.548,0.246,0.548,0.547v4.41c0,0.304-0.245,0.55-0.548,0.55h-3.201  c-0.3,0-0.542,0.195-0.542,0.498v19.386c0,0.305-0.248,0.547-0.55,0.547h-4.831c-0.304,0-0.55-0.242-0.55-0.547L195.704,17.867"/>
<path fill="rgb(94.099426%,30.599976%,13.699341%)" d="M210.982,17.867c0-0.304-0.247-0.549-0.551-0.549h-3.184c-0.302,0-0.549-0.246-0.549-0.55v-4.41  c0-0.302,0.247-0.547,0.549-0.547h13.407c0.305,0,0.549,0.246,0.549,0.547v4.41c0,0.304-0.244,0.55-0.549,0.55h-3.199  c-0.302,0-0.543,0.195-0.543,0.498v19.386c0,0.305-0.246,0.547-0.55,0.547h-4.83c-0.304,0-0.55-0.242-0.55-0.547L210.982,17.867"/>
<path fill-rule="evenodd" clip-rule="evenodd" fill="rgb(94.099426%,30.599976%,13.699341%)" d="M90.283,18.288c0.219-0.073,0.436-0.049,0.436,0.254v8.109  c0,0.303-0.246,0.549-0.549,0.549h-5.389c-0.327-0.191-0.267-0.034-0.279-0.484L90.283,18.288 M90.722,33.26v3.942  c0,0.305,0.246,0.547,0.549,0.547h4.833c0.301,0,0.548-0.242,0.548-0.547V12.358c0-0.302-0.247-0.547-0.548-0.547h-7.356  c-0.303,0-0.519,0.225-0.726,0.547L70.938,37.202c0,0.305,0.246,0.547,0.549,0.547h5.257c0.366-0.161,0.378-0.243,0.596-0.536  l2.697-3.954c0.207-0.315,0.41-0.543,0.714-0.543h9.421C90.417,32.716,90.651,33.04,90.722,33.26z"/>
<g>
	<path fill="rgb(94.099426%,30.599976%,13.699341%)" d="M231.511,16.307c-1.344,0-2.437-1.093-2.437-2.436c0-1.344,1.093-2.438,2.437-2.438   c1.345,0,2.438,1.094,2.438,2.438C233.949,15.214,232.855,16.307,231.511,16.307z M231.511,11.82c-1.129,0-2.049,0.919-2.049,2.05   c0,1.129,0.92,2.048,2.049,2.048c1.131,0,2.051-0.918,2.051-2.048C233.562,12.74,232.642,11.82,231.511,11.82z"/>
</g>
<path fill-rule="evenodd" clip-rule="evenodd" fill="rgb(94.099426%,30.599976%,13.699341%)" d="M230.868,13.996h0.858c0.424,0,0.467,0.252,0.467,0.468  c0,0.099,0.011,0.496,0.063,0.657h0.434v-0.059c-0.11-0.062-0.129-0.118-0.132-0.264l-0.021-0.474  c-0.016-0.365-0.164-0.431-0.313-0.493c0.168-0.098,0.364-0.24,0.364-0.627c0-0.556-0.431-0.703-0.861-0.703h-1.211v2.619h0.353  V13.996 M230.868,12.804h0.884c0.175,0,0.472,0.033,0.472,0.438c0,0.386-0.272,0.453-0.532,0.453h-0.823V12.804z"/>
<g id="cVH4Eq_1_">
	
		<image overflow="visible" width="285" height="118" id="cVH4Eq" xlink:href="F1CE5F3E.jpg" transform="matrix(1 0 0 1 -320.7373 130.0801)">
	</image>
</g>
</svg>